<?xml version="1.0" encoding="utf-8"?>
<!-- Generator: Adobe Illustrator 24.0.3, SVG Export Plug-In . SVG Version: 6.00 Build 0)  -->
<svg version="1.1" id="Capa_1" xmlns="http://www.w3.org/2000/svg" xmlns:xlink="http://www.w3.org/1999/xlink" x="0px" y="0px"
	 viewBox="0 0 377 125" style="enable-background:new 0 0 377 125;" xml:space="preserve">
<style type="text/css">
	.st0{fill-rule:evenodd;clip-rule:evenodd;fill:#FFFFFF;}
	.st1{fill-rule:evenodd;clip-rule:evenodd;fill:#002D74;}
	.st2{fill-rule:evenodd;clip-rule:evenodd;fill:#CE0E2D;}
	.st3{fill:#FFFFFF;}
</style>
<circle class="st0" cx="56" cy="62.5" r="54.7"/>
<g>
	<path class="st1" d="M56,21c22.9,0,41.5,18.6,41.5,41.5S78.9,104,56,104S14.5,85.4,14.5,62.5S33.1,21,56,21z"/>
	<polygon class="st0" points="44.4,32 54.8,25.7 54.8,35.2 45.3,40.8 32.5,40.8 32.5,32.1 	"/>
	<polygon class="st2" points="34.6,33.9 34.6,39 44.9,39 53,34.2 53,28.9 44.9,33.8 	"/>
	<polygon class="st0" points="32.5,44.1 44.9,44.1 54.8,38.5 54.8,36.7 44.9,42.3 32.5,42.3 	"/>
	<polygon class="st0" points="32.5,47.8 44.9,47.8 54.8,42.1 54.8,40.4 44.9,46 32.5,46 	"/>
	<polygon class="st0" points="45,62.1 58.4,69.7 58.4,77.7 55.7,79.1 53,77.7 53,72.6 45,68 45,80.9 55.1,86.6 55.1,99.3 32.8,86.7 
		32.8,61.2 30.7,61.2 30.7,49.1 45,49.1 	"/>
	<polygon class="st2" points="32.5,50.8 34.6,50.8 43.2,50.8 43.2,59.4 43.2,63.2 56.6,70.7 56.6,76.6 55.7,77.1 54.8,76.6 
		54.8,71.5 43.2,65 43.2,82 53.3,87.6 53.3,96.2 34.6,85.7 34.6,59.4 32.5,59.4 	"/>
	<polygon class="st0" points="58.4,56 67,60.9 67,49.1 81.2,49.1 81.2,61.2 79.2,61.2 79.2,86.7 56.9,99.3 56.9,86.6 67,80.9 
		67,66.8 53,58.9 53,50.9 55.7,49.5 58.4,50.9 	"/>
	<polygon class="st2" points="56.6,52 56.6,57.1 68.8,63.9 68.8,59.4 68.8,50.8 77.4,50.8 79.5,50.8 79.5,59.4 77.4,59.4 77.4,85.7 
		58.7,96.2 58.6,87.6 68.8,82 68.8,65.9 68.5,65.5 54.8,57.8 54.8,52 55.7,51.5 	"/>
	<polygon class="st0" points="67.1,32 56.6,25.7 56.6,35.2 66.1,40.8 78.9,40.8 78.9,32.1 	"/>
	<polygon class="st2" points="76.8,33.9 76.8,39 66.6,39 58.4,34.2 58.4,28.9 66.6,33.8 	"/>
	<polygon class="st0" points="78.9,44.1 66.6,44.1 56.6,38.5 56.6,36.7 66.6,42.3 78.9,42.3 	"/>
	<polygon class="st0" points="78.9,47.8 66.6,47.8 56.6,42.1 56.6,40.4 66.6,46 78.9,46 	"/>
	<path class="st1" d="M22.7,86l-8.2,8.2c9.5,12.4,24.5,20.5,41.4,20.5s31.9-8,41.4-20.5l-8-8.2l0.4-0.4l8.1,8.1
		c6.5-8.7,10.4-19.5,10.4-31.2c0-28.8-23.4-52.2-52.2-52.2S3.8,33.7,3.8,62.5c0,11.7,3.9,22.5,10.4,31.2l8.1-8.1L22.7,86L22.7,86z
		 M56,9.5c29.3,0,53,23.7,53,53s-23.7,53-53,53S3,91.8,3,62.5S26.7,9.5,56,9.5z"/>
	<path class="st1" d="M7,58.6H6.8L6.9,57h0.2v0.6L12,58c0.2,0,0.4,0.1,0.6,0.3c0.2,0.2,0.3,0.4,0.4,0.6c0.1,0.2,0.1,0.5,0.1,0.7
		s-0.1,0.5-0.2,0.8c-0.1,0.3-0.2,0.5-0.3,0.7c-0.3,0.3-0.6,0.4-1,0.4l-4.2-0.3c-0.3,0-0.4,0.2-0.5,0.7H6.7L6.8,60H7v0.6l4.7,0.4
		c0.3,0,0.6-0.1,0.8-0.3s0.3-0.6,0.4-0.9c0-0.3-0.1-0.6-0.3-0.9c-0.2-0.2-0.5-0.4-0.8-0.4l-4.3-0.3C7.2,58.2,7.1,58.3,7,58.6L7,58.6
		L7,58.6z M13,56.2l0.1-0.6l-4.8-0.9c-0.3,0-0.5-0.1-0.6,0c-0.2,0.1-0.3,0.3-0.4,0.7H7.1l0.2-1l5.4-1.9l0,0l-4.2-0.7
		c-0.2,0-0.3,0-0.5,0.1c-0.1,0.1-0.2,0.3-0.3,0.5H7.5L8,50.7h0.2l-0.1,0.5l6.1,1.1v0.2l-5.5,1.9l0,0l3.8,0.7c0.3,0.1,0.5,0,0.6-0.1
		s0.2-0.3,0.2-0.6h0.2l-0.3,1.7L13,56.2L13,56.2z M14.2,50.5l0.2-0.6l-5.1-1.4c-0.2,0-0.3,0-0.4,0.1c-0.1,0.1-0.2,0.3-0.2,0.5H8.5
		l0.5-2h0.2L9,47.7l5,1.4c0.2,0,0.3,0.1,0.3,0.1c0.1,0,0.2,0,0.2-0.1c0.1-0.1,0.1-0.3,0.2-0.5h0.2l-0.5,1.9L14.2,50.5L14.2,50.5z
		 M15.9,44.2l-3.5-2.9c-0.1-0.1-0.2-0.2-0.3-0.2c-0.2-0.1-0.3-0.1-0.4,0c-0.1,0.1-0.2,0.2-0.3,0.4v0.1l-0.2-0.1l0.8-1.8l0.2,0.1
		l-0.3,0.6l4.9,4.2l-0.1,0.2l-5.5-0.4c-0.3,0-0.6,0-0.7,0c-0.2,0-0.3,0.1-0.4,0.1c-0.1,0.1-0.1,0.2-0.2,0.3L9.8,45l-0.2-0.1l0.9-2
		l0.2,0.1l-0.3,0.7L15.9,44.2L15.9,44.2z M19.8,38.5l0.3,0.2l0.1-0.2l-1.9-1.1l-0.1,0.2l0.4,0.2c0.3,0.1,0.4,0.3,0.5,0.5
		s0.1,0.4,0,0.8c-0.2,0.4-0.4,0.8-0.6,1.2l-3.5-2c0.1-0.2,0.2-0.3,0.3-0.4c0.1-0.1,0.3-0.2,0.5-0.2s0.4,0.1,0.6,0.3l0.1-0.1
		l-1.9-1.1l-0.1,0.1l0.8,0.5l-0.5,0.8l-1.3-0.7l0.1-0.2c0.3-0.6,0.6-1,0.9-1.1c0.3-0.2,0.6-0.1,1,0.1l0.3,0.2l0.1-0.2l-1.8-1
		L14,35.5l0.3,0.2l-1.7,3l0.1,0.1c0.1-0.2,0.2-0.3,0.3-0.4c0.1-0.1,0.2-0.1,0.4,0L18,41l-0.3,0.6l0.1,0.1L19.8,38.5L19.8,38.5z
		 M16,33.1l0.9-1l0.4,0.4c0.2-0.8,0.5-1.5,0.9-2c0.3-0.4,0.8-0.7,1.3-0.9c0.5-0.2,1-0.3,1.5-0.3s0.9,0.2,1.2,0.5
		c0.4,0.3,0.6,0.7,0.7,1.2s0.1,1-0.1,1.5s-0.4,1-0.8,1.5l0,0c0.1-0.1,0.4-0.2,0.8-0.4s0.8-0.4,1.1-0.6c0.3-0.2,0.5-0.4,0.7-0.6
		c0.2-0.2,0.2-0.3,0.3-0.4H25c0,0.2-0.1,0.5-0.4,0.8c-0.2,0.2-0.4,0.4-0.6,0.6c-0.2,0.2-0.4,0.3-0.6,0.5c-0.2,0.1-0.5,0.3-0.9,0.6
		c-0.8,0.4-1.5,0.8-2.1,1l0.6,0.6c0.1,0.1,0.2,0.1,0.3,0.1c0.1,0,0.1,0,0.2-0.1s0.2-0.2,0.3-0.3c0-0.1,0.1-0.2,0.2-0.3l0.1,0.1
		L20.6,37l-0.1-0.1l0.4-0.5l-4-3.5c-0.2-0.2-0.4-0.1-0.7,0.2l-0.1,0.1L16,33.1L16,33.1z M17.5,32.7l2.5,2.2v-0.2
		c0.9-0.3,1.5-0.6,1.9-1.1c0.3-0.3,0.5-0.7,0.6-1.1c0.1-0.4,0.1-0.8,0-1.2c-0.1-0.4-0.3-0.7-0.6-1c-0.3-0.3-0.7-0.4-1.1-0.5
		c-0.4,0-0.9,0-1.3,0.2s-0.8,0.4-1.2,0.8C17.7,31.4,17.5,32,17.5,32.7L17.5,32.7z M24.8,23.5l-0.2,0.1l0.2,0.3
		c-0.3,0.1-0.5,0.3-0.7,0.4c-0.3,0.3-0.5,0.6-0.6,1s0,0.7,0.2,1c0.2,0.2,0.4,0.3,0.6,0.4c0.2,0,0.5,0.1,0.7,0c0.3,0,0.6-0.1,0.9-0.2
		c0.4-0.1,0.7-0.2,1-0.3c0.3-0.1,0.5-0.1,0.8,0c0.3,0,0.5,0.1,0.6,0.3c0.2,0.2,0.3,0.5,0.3,0.9c0,0.3-0.1,0.7-0.2,1
		c-0.2,0.3-0.4,0.7-0.7,0.9c-0.3,0.3-0.7,0.5-1.1,0.6s-0.7,0.1-1.1,0c-0.3-0.1-0.6-0.3-0.8-0.5c-0.1-0.2-0.2-0.4-0.3-0.6
		c-0.1-0.2,0-0.5,0-0.7c0.1-0.2,0.2-0.4,0.4-0.6c0.1-0.1,0.3-0.2,0.5-0.2s0.3,0,0.5,0c0.1,0,0.3,0.1,0.3,0.2c0.2,0.2,0.2,0.4,0,0.7
		l0.1,0.2c0.1-0.1,0.2-0.1,0.2-0.1c0.2-0.2,0.3-0.3,0.3-0.5s0-0.4-0.2-0.5c-0.1-0.2-0.3-0.2-0.5-0.3c-0.2,0-0.4,0-0.7,0.1
		c-0.2,0.1-0.4,0.2-0.6,0.4c-0.3,0.2-0.5,0.5-0.6,0.8s-0.2,0.6-0.1,1c0,0.3,0.2,0.6,0.4,0.8c0.3,0.3,0.6,0.5,1,0.6s0.8,0,1.2-0.1
		c0.4-0.1,0.8-0.4,1.2-0.7c0.3-0.2,0.5-0.5,0.7-0.8s0.3-0.6,0.4-0.9s0.1-0.6,0.1-0.9s-0.2-0.6-0.4-0.8c-0.2-0.2-0.4-0.4-0.7-0.4
		c-0.3-0.1-0.6-0.1-0.9,0s-0.7,0.1-1.1,0.3c-0.4,0.1-0.7,0.2-0.9,0.3c-0.2,0.1-0.5,0.1-0.7,0c-0.2,0-0.4-0.1-0.5-0.3
		c-0.1-0.1-0.2-0.2-0.2-0.4c0-0.2,0-0.3,0.1-0.5s0.2-0.3,0.3-0.4c0.3-0.3,0.6-0.3,0.8-0.2c0.3,0.1,0.5,0.3,0.8,0.6l0.4,0.4l0.2-0.1
		L24.8,23.5L24.8,23.5z M30.9,26.8l0.5-0.4l-3.1-4.3c-0.1-0.1-0.2-0.2-0.4-0.2c-0.1,0-0.3,0.1-0.5,0.2V22l1.6-1.1l0.1,0.1l-0.5,0.4
		l3,4.2c0.1,0.1,0.2,0.2,0.2,0.2c0.1,0.1,0.2,0.1,0.2,0.1c0.1,0,0.2-0.1,0.5-0.3l0.1,0.1L31,26.9L30.9,26.8L30.9,26.8z M33.5,24.9
		l0.1,0.2l2.1-1.1c0.5-0.3,1-0.5,1.3-0.8s0.6-0.6,0.8-0.8c0.2-0.3,0.3-0.6,0.4-0.9c0.3-0.8,0.2-1.5-0.1-2.2
		c-0.1-0.2-0.3-0.4-0.5-0.6s-0.4-0.3-0.7-0.5c-0.2-0.1-0.5-0.2-0.8-0.3c-0.4-0.1-0.8-0.1-1.3,0c-0.4,0.1-0.9,0.3-1.4,0.5l-2.7,1.4
		l0.1,0.2l0.1-0.1c0.3-0.2,0.6-0.1,0.7,0.1l2.4,4.7L33.5,24.9L33.5,24.9z M37.6,19.5c-0.2-0.4-0.6-0.7-1.1-1c-0.5-0.2-1-0.3-1.5-0.3
		c-0.6,0-1.1,0.1-1.6,0.4c-0.6,0.3-1,0.6-1.3,0.9l2.4,4.7c0.4-0.1,0.9-0.3,1.6-0.6c0.5-0.3,0.9-0.6,1.3-1.1c0.3-0.5,0.5-1,0.5-1.5
		C37.9,20.4,37.8,19.9,37.6,19.5L37.6,19.5z M44.6,20.2L42.2,17l-0.9,0.2V20c0,0.3,0,0.5,0.1,0.7c0,0.1,0.1,0.2,0.2,0.3
		c0.1,0,0.2,0,0.4,0c0.1,0,0.3-0.1,0.5-0.1v0.2l-1.9,0.5v-0.2l0.4-0.1v-6.4l0.2-0.1l3.2,4.3c0.1,0.2,0.2,0.3,0.3,0.5
		s0.3,0.3,0.4,0.4c0.2,0.1,0.3,0.1,0.5,0v0.2L44,20.6v-0.2L44.6,20.2L44.6,20.2z M42.1,16.8l-0.7-1l0,0V17L42.1,16.8L42.1,16.8z
		 M46.7,19.6l0.7-0.1l-0.7-5.2c0-0.3-0.3-0.4-0.6-0.4H46v-0.2l3-0.4c0.6-0.1,1.1-0.1,1.5,0s0.8,0.2,1.2,0.4c0.2,0.1,0.4,0.3,0.6,0.5
		c0.2,0.2,0.4,0.4,0.5,0.7c0.1,0.2,0.2,0.5,0.2,0.8c0.1,0.8-0.1,1.5-0.6,2.1c-0.2,0.3-0.4,0.5-0.7,0.7s-0.6,0.4-1,0.5
		c-0.4,0.2-0.9,0.3-1.5,0.3l-2.4,0.3H46.7L46.7,19.6z M52.4,15.9c-0.1-0.5-0.3-0.9-0.7-1.3c-0.4-0.4-0.8-0.7-1.3-0.8
		c-0.5-0.2-1.1-0.2-1.7-0.2c-0.7,0.1-1.2,0.2-1.5,0.4l0.7,5.2c0.4,0.1,1,0.1,1.7,0c0.6-0.1,1.1-0.3,1.6-0.6c0.5-0.3,0.8-0.7,1-1.2
		C52.3,16.9,52.4,16.4,52.4,15.9L52.4,15.9z M58,18.7l0.7,0.1l0.7-5.2c0-0.3-0.1-0.5-0.5-0.5h-0.1v-0.2l3,0.4
		c0.6,0.1,1.1,0.2,1.5,0.4s0.8,0.4,1,0.7c0.2,0.2,0.4,0.4,0.5,0.7c0.1,0.2,0.2,0.5,0.3,0.8c0.1,0.3,0.1,0.5,0,0.8
		c-0.1,0.8-0.5,1.4-1.2,1.9c-0.3,0.2-0.6,0.4-0.9,0.5c-0.3,0.1-0.7,0.2-1.1,0.3c-0.4,0-1,0-1.5,0L58,18.7L58,18.7L58,18.7z
		 M64.4,16.5c0-0.5-0.1-1-0.3-1.4c-0.3-0.5-0.6-0.8-1.1-1.1s-1-0.5-1.6-0.6c-0.7-0.1-1.2-0.1-1.5,0l-0.7,5.2
		c0.4,0.2,0.9,0.3,1.6,0.4c0.6,0.1,1.1,0,1.7-0.2c0.5-0.2,1-0.5,1.3-0.9C64.2,17.5,64.4,17,64.4,16.5L64.4,16.5z M69.2,21L66,20.1
		v-0.2l0.6,0.2L68,15c0-0.2,0-0.3-0.1-0.4c-0.1-0.1-0.3-0.2-0.5-0.2v-0.2l3.3,0.9l0.1-0.4l0.2,0.1l-0.6,2l-0.2-0.1l0.1-0.3
		c0.1-0.5,0.1-0.8-0.1-1s-0.7-0.4-1.3-0.6l-0.3-0.1l-0.4,1.4l0.9,0.3l0.3-0.9h0.2L69,17.6h-0.2c0.1-0.3,0.1-0.5,0.1-0.7
		s-0.1-0.3-0.3-0.5c-0.1-0.1-0.2-0.1-0.5-0.2L67,20.1c0.4,0.1,0.9,0.2,1.3,0.3c0.3,0,0.6-0.1,0.7-0.2c0.2-0.1,0.3-0.4,0.4-0.6
		l0.1-0.5l0.2,0.1l-0.6,2.1l-0.2-0.1L69.2,21L69.2,21z M78.2,18.2l-0.1,0.2L77.5,18l-2.6,5.1c0.3,0.2,0.6,0.3,0.9,0.4
		s0.5,0.1,0.8,0.1c0.2,0,0.4-0.2,0.5-0.4l0.7-1.3L78,22l-1.3,2.6l-0.2-0.1l0.2-0.3l-2.8-1.5l0.1-0.2l0.6,0.3l2.4-4.7
		c0.1-0.1,0.1-0.3,0-0.4s-0.2-0.2-0.4-0.3l0.1-0.2L78.2,18.2L78.2,18.2z M81.6,27L81,26.6l-0.1,0.1l1.5,1l0.1-0.1
		c-0.2-0.1-0.3-0.3-0.3-0.4c0-0.2,0-0.4,0-0.5c0-0.2,0.1-0.4,0.1-0.6l1.1-5.2l-0.2-0.1L78.4,25L78,24.7l-0.1,0.1l1.6,1.1l0.1-0.1
		c-0.2-0.1-0.3-0.2-0.4-0.3c-0.1-0.1-0.2-0.2-0.3-0.3c0-0.1,0-0.2,0.1-0.3c0.1-0.2,0.2-0.3,0.4-0.5l2.1-1.8l0.8,0.5L81.6,27L81.6,27
		z M82.5,22.8l-0.7-0.4l0.9-0.8l0,0L82.5,22.8L82.5,22.8z M93,29l-1.7,1.6l-0.1-0.1l0.4-0.4c0.3-0.3,0.5-0.5,0.6-0.8s0-0.5-0.3-0.8
		c-0.1-0.1-0.3-0.2-0.4-0.3c-0.2-0.1-0.3-0.1-0.5-0.1s-0.3,0.1-0.4,0.2c-0.2,0.2-0.2,0.3-0.3,0.6c0,0.2,0,0.4,0.1,0.7
		c0.1,0.2,0.2,0.5,0.3,0.9c0.2,0.4,0.3,0.8,0.3,1.1c0.1,0.3,0.1,0.6,0,0.9c0,0.3-0.2,0.5-0.4,0.7c-0.2,0.2-0.5,0.3-0.8,0.4
		c-0.3,0.1-0.6,0.1-0.9,0s-0.6-0.2-1-0.4c-0.3-0.2-0.6-0.4-0.9-0.7c-0.3-0.4-0.6-0.7-0.8-1.2C86,30.9,86,30.5,86,30.1
		c0.1-0.4,0.2-0.7,0.5-1c0.2-0.2,0.5-0.4,0.8-0.4c0.3-0.1,0.6,0,1,0.1c0.3,0.1,0.6,0.3,0.9,0.6c0.2,0.2,0.3,0.4,0.4,0.6
		s0.1,0.4,0.1,0.7c0,0.2-0.1,0.4-0.2,0.5s-0.3,0.2-0.5,0.2s-0.4-0.1-0.6-0.3c0,0-0.1-0.1-0.2-0.2l0.2-0.1c0.3,0.2,0.5,0.2,0.7,0
		c0.1-0.1,0.1-0.2,0.2-0.3c0-0.1,0-0.3,0-0.5s-0.1-0.3-0.3-0.4c-0.2-0.2-0.4-0.3-0.6-0.4s-0.5-0.1-0.7,0s-0.4,0.2-0.6,0.3
		c-0.2,0.2-0.4,0.5-0.5,0.8s-0.1,0.7,0,1.1s0.3,0.7,0.6,1.1c0.3,0.3,0.6,0.5,1,0.7s0.7,0.2,1,0.2s0.6-0.2,0.8-0.4
		c0.2-0.2,0.3-0.4,0.3-0.7s0-0.5-0.1-0.8s-0.2-0.6-0.3-1c-0.1-0.4-0.2-0.7-0.3-0.9c-0.1-0.3-0.1-0.5,0-0.7c0-0.2,0.2-0.4,0.3-0.6
		c0.2-0.2,0.6-0.3,0.9-0.2c0.4,0.1,0.7,0.3,1,0.6c0.1,0.1,0.3,0.4,0.4,0.7l0.3-0.3L93,29L93,29z M91.9,38.1l-0.3,0.2l0.1,0.2
		l1.8-1.3L93.4,37L93,37.3c-0.2,0.2-0.5,0.3-0.7,0.3s-0.5-0.1-0.7-0.3c-0.3-0.3-0.5-0.7-0.8-1l3.3-2.3c0.1,0.2,0.2,0.3,0.2,0.4
		c0.1,0.2,0,0.4-0.1,0.5c-0.1,0.2-0.3,0.3-0.5,0.5l0.1,0.1l1.8-1.3l-0.1-0.1l-0.7,0.5l-0.6-0.8l1.2-0.9l0.2,0.2
		c0.4,0.6,0.6,1,0.7,1.3c0,0.3-0.1,0.6-0.5,0.9l-0.3,0.2l0.1,0.2l1.7-1.2l-0.1-0.2l-0.3,0.2l-2-2.8l-0.1,0.1
		c0.1,0.2,0.2,0.3,0.2,0.5c0,0.1,0,0.2-0.2,0.4l-4.3,3.1l-0.4-0.5L90,35.4L91.9,38.1L91.9,38.1z M98.3,36.6l0.6,1.2L98.4,38
		c0.7,0.4,1.2,1,1.5,1.6c0.2,0.5,0.4,1,0.4,1.5s-0.1,1-0.3,1.5c-0.2,0.4-0.5,0.8-0.9,1s-0.9,0.3-1.4,0.2s-0.9-0.3-1.3-0.6
		s-0.8-0.7-1.1-1.3l0,0c0,0.2,0,0.5,0.1,0.9c0,0.5,0.1,0.9,0.1,1.2c0.1,0.3,0.2,0.6,0.3,0.9c0.1,0.2,0.2,0.3,0.3,0.4v0.1
		c-0.2-0.1-0.4-0.3-0.6-0.6c-0.1-0.2-0.2-0.5-0.3-0.8c-0.1-0.3-0.1-0.5-0.2-0.8c0-0.2-0.1-0.6-0.2-1.1c-0.1-0.9-0.1-1.7-0.1-2.4
		l-0.8,0.4c-0.1,0.1-0.2,0.1-0.2,0.2c0,0.1,0,0.1,0,0.2c0,0.1,0.1,0.2,0.1,0.4c0,0.1,0.1,0.2,0.2,0.3v0.2l-1-1.9l0.2-0.1l0.3,0.5
		l4.7-2.4c0.2-0.1,0.3-0.4,0.1-0.7v-0.1L98.3,36.6L98.3,36.6z M98.1,38.2c0.7,0.2,1.2,0.7,1.5,1.3c0.2,0.5,0.3,0.9,0.3,1.4
		s-0.1,0.9-0.3,1.3c-0.2,0.4-0.5,0.7-0.9,0.9c-0.3,0.2-0.7,0.2-1.1,0.2s-0.8-0.2-1.1-0.5c-0.4-0.3-0.6-0.6-0.8-1
		c-0.3-0.5-0.4-1.2-0.3-2.1h-0.2L98.1,38.2L98.1,38.2z M97.4,49.9L97.1,50l0.1,0.2l2.1-0.7l-0.1-0.2l-0.4,0.2
		c-0.3,0.1-0.5,0.1-0.7,0.1c-0.2-0.1-0.4-0.2-0.6-0.5c-0.2-0.4-0.3-0.8-0.5-1.2l3.8-1.3c0.1,0.2,0.1,0.4,0.1,0.5
		c0,0.2-0.1,0.4-0.2,0.5c-0.2,0.1-0.4,0.2-0.6,0.3L100,48l2.1-0.7l-0.1-0.2l-0.9,0.3l-0.3-0.9l1.4-0.5l0.1,0.3
		c0.2,0.6,0.3,1.1,0.3,1.4c0,0.3-0.3,0.5-0.8,0.7l-0.3,0.1l0.1,0.2l1.9-0.7l-0.1-0.2l-0.4,0.1l-1.1-3.3l-0.2,0.1
		c0.1,0.2,0.1,0.4,0.1,0.5s-0.1,0.2-0.3,0.3l-5,1.7l-0.2-0.6l-0.2,0.1L97.4,49.9L97.4,49.9z M98.2,51.5l0.1,0.6l4.8-0.9
		c0.3,0,0.4-0.1,0.6-0.2c0.2-0.1,0.2-0.4,0.1-0.8h0.2l0.2,1L99.7,55l0,0l4.2-0.7c0.2,0,0.3-0.1,0.4-0.3s0.1-0.3,0.1-0.5h0.2l0.3,1.5
		h-0.2l-0.1-0.5l-6.1,1.1v-0.2l4.5-3.7l0,0l-4,0.6c-0.3,0.1-0.5,0.2-0.6,0.3c0,0.1,0,0.3,0,0.6h-0.2L98,51.6L98.2,51.5L98.2,51.5z
		 M99.4,61.3l3.6-1.7l-0.1-0.9l-2.7-0.6C100,58,99.8,58,99.6,58c-0.1,0-0.2,0.1-0.3,0.1c-0.1,0.1-0.1,0.2-0.1,0.4c0,0.1,0,0.3,0,0.5
		H99v-1.9h0.2v0.5l6.3,1.3v0.2l-4.8,2.3c-0.2,0.1-0.3,0.2-0.5,0.2c-0.2,0.1-0.3,0.2-0.4,0.3s-0.2,0.3-0.1,0.5h-0.2l-0.1-1.8h0.2
		L99.4,61.3L99.4,61.3z M103.3,59.5l1.1-0.5l0,0l-1.2-0.2L103.3,59.5z"/>
	<path class="st1" d="M48.5,106.1l0.1-0.5h0.2l-0.5,2.3h-0.2c0.1-0.4,0.1-0.8,0.1-1s-0.1-0.4-0.2-0.6c-0.1-0.2-0.4-0.4-0.7-0.5
		c-0.3-0.2-0.6-0.3-1-0.4c-0.6-0.1-1.3-0.1-1.8,0c-0.6,0.2-1,0.4-1.4,0.8s-0.6,0.8-0.7,1.3c-0.1,0.4-0.1,0.8,0,1.2
		c0.1,0.4,0.2,0.8,0.5,1.2c0.2,0.4,0.6,0.7,0.9,0.9c0.4,0.3,0.8,0.5,1.3,0.6s1,0.1,1.4,0.1c0.4-0.1,0.8-0.2,1.2-0.4l0.1,0.2
		c-0.4,0.2-0.9,0.3-1.4,0.3s-1,0-1.5-0.1c-0.7-0.2-1.3-0.5-1.8-0.9s-0.9-0.9-1.2-1.5c-0.2-0.6-0.3-1.1-0.2-1.7
		c0.1-0.5,0.3-0.9,0.6-1.2c0.3-0.3,0.7-0.6,1.2-0.8c0.5-0.2,0.9-0.3,1.5-0.4c0.5,0,1.1,0,1.6,0.1C47.3,105.4,47.9,105.7,48.5,106.1
		L48.5,106.1z M56.9,112.6h0.7l-0.1-5.4c0-0.2-0.1-0.3-0.2-0.3c-0.1-0.1-0.3-0.1-0.5-0.1v-0.2h2v0.2h-0.6l0.1,5.2c0,0.2,0,0.3,0,0.3
		c0,0.1,0.1,0.2,0.2,0.2c0.1,0,0.3,0,0.6,0v0.2h-2L56.9,112.6L56.9,112.6z M62,106.4v0.2l-0.7,0.1l0.7,5.8c0.4,0,0.7-0.1,1-0.2
		s0.5-0.2,0.7-0.4c0.2-0.2,0.3-0.4,0.2-0.7l-0.2-1.5h0.2l0.4,3h-0.2v-0.4l-3.2,0.4v-0.2l0.6-0.1l-0.7-5.4c0-0.2-0.1-0.3-0.2-0.3
		c-0.1,0-0.3,0-0.5,0v-0.2L62,106.4L62,106.4z M70,111.1l-3.4,0.8v-0.2l0.6-0.1l-1.2-5.2c0-0.2-0.1-0.3-0.3-0.3c-0.1,0-0.3,0-0.5,0
		v-0.2l3.4-0.8l-0.1-0.4h0.2l0.5,2H69l-0.1-0.3c-0.1-0.5-0.3-0.8-0.6-0.9c-0.3-0.1-0.8,0-1.4,0.1l-0.3,0.1l0.3,1.5l0.9-0.2l-0.2-0.9
		h0.2l0.5,2.2h-0.2c-0.1-0.3-0.1-0.5-0.2-0.7s-0.3-0.3-0.5-0.3c-0.1,0-0.3,0-0.5,0.1l0.9,4c0.5-0.1,0.9-0.2,1.3-0.4
		c0.3-0.2,0.5-0.3,0.5-0.6c0.1-0.2,0.1-0.5,0-0.8l-0.1-0.5h0.2l0.5,2.2H70L70,111.1L70,111.1z M54.4,106.7L54,112
		c0,0.2,0,0.3,0.1,0.4s0.2,0.1,0.5,0.2c0,0,0.1,0,0.2,0v0.2l-2-0.2v-0.2h0.7l0.3-4.1l-2.3-0.2l-0.3,3.6c0,0.2,0,0.4,0.2,0.4
		c0.1,0,0.3,0.1,0.5,0.1v0.2l-2-0.2V112h0.7l0.4-5.4c0-0.3-0.2-0.4-0.6-0.5h-0.1v-0.2l2,0.2v0.2h-0.6l-0.1,1.5L54,108l0.1-1.1
		c0-0.1,0-0.3-0.1-0.3c-0.1-0.1-0.2-0.1-0.4-0.1h-0.2v-0.2l2,0.2v0.2H54.4z"/>
	<path class="st0" d="M121.8,87.9h2.3v8.3c0,1.7,1.1,2.7,2.9,2.7c1.8,0,2.9-1,2.9-2.7V88h2.3v8.3c0,2.9-2.1,4.8-5.2,4.8
		c-3.1,0-5.2-2-5.2-4.8L121.8,87.9L121.8,87.9z"/>
	<path class="st0" d="M135.3,87.9h2.3l4.9,7.4c0.5,0.7,1.1,2,1.1,2l0,0c0,0-0.1-1.2-0.1-2v-7.4h2.3v12.9h-2.3l-4.9-7.4
		c-0.5-0.7-1.1-2-1.1-2l0,0c0,0,0.1,1.2,0.1,2v7.4h-2.3V87.9z"/>
	<rect x="149.1" y="87.9" class="st0" width="2.3" height="12.9"/>
	<path class="st0" d="M153,87.9h2.5l2.8,8.4c0.3,0.7,0.5,1.9,0.5,1.9l0,0c0,0,0.2-1.1,0.5-1.9l2.9-8.4h2.5l-4.7,12.9h-2.3L153,87.9z
		"/>
	<polygon class="st0" points="166.4,87.9 174.1,87.9 174.1,89.9 168.7,89.9 168.7,93.3 173.1,93.3 173.1,95.3 168.7,95.3 
		168.7,98.7 174.4,98.7 174.4,100.8 166.4,100.8 	"/>
	<path class="st0" d="M181.3,93.9c1.3,0,2-0.7,2-2c0-1.2-0.5-2-2.4-2h-1.8v4H181.3L181.3,93.9z M176.8,87.9h4.2c1.4,0,2,0.1,2.6,0.4
		c1.3,0.6,2.1,1.8,2.1,3.5c0,1.5-0.8,3-2.2,3.5l0,0c0,0,0.2,0.2,0.4,0.6l2.7,4.8H184l-2.6-4.8h-2.3v4.8h-2.3L176.8,87.9L176.8,87.9z
		"/>
	<path class="st0" d="M189.1,97.5c0,0,1.4,1.4,3.2,1.4c1,0,1.9-0.5,1.9-1.6c0-2.3-6.1-1.9-6.1-5.9c0-2.1,1.9-3.7,4.3-3.7
		c2.5,0,3.8,1.4,3.8,1.4l-1,1.9c0,0-1.2-1.1-2.8-1.1c-1.1,0-1.9,0.6-1.9,1.5c0,2.3,6.1,1.7,6.1,5.8c0,2.1-1.6,3.8-4.2,3.8
		c-2.9,0-4.4-1.8-4.4-1.8L189.1,97.5z"/>
	<rect x="198.8" y="87.9" class="st0" width="2.3" height="12.9"/>
	<path class="st0" d="M208.7,98.7c2.6,0,4.3-1.5,4.3-4.4s-1.7-4.4-4.3-4.4h-1.9v8.9L208.7,98.7L208.7,98.7z M204.4,87.9h4.4
		c4,0,6.6,2.4,6.6,6.4c0,4.1-2.6,6.5-6.6,6.5h-4.4V87.9z"/>
	<path class="st0" d="M222,90.1c0,0-0.3,1.3-0.5,2l-1.1,3.4h3.4l-1.1-3.4C222.3,91.4,222,90.1,222,90.1L222,90.1L222,90.1z
		 M224.3,97.5h-4.5l-1.1,3.3h-2.4l4.5-12.9h2.5l4.5,12.9h-2.4L224.3,97.5z"/>
	<path class="st0" d="M233.7,98.7c2.6,0,4.3-1.5,4.3-4.4s-1.7-4.4-4.3-4.4h-1.9v8.9L233.7,98.7L233.7,98.7z M229.4,87.9h4.4
		c4,0,6.6,2.4,6.6,6.4c0,4.1-2.6,6.5-6.6,6.5h-4.4V87.9z"/>
	<path class="st0" d="M250.1,99.6c3.1,0,5.2-1.9,5.2-5.3s-2.1-5.2-5.2-5.2h-2.7v10.5H250.1L250.1,99.6z M246.1,88h4.1
		c3.8,0,6.4,2.3,6.4,6.4s-2.6,6.4-6.4,6.4h-4.1V88z"/>
	<polygon class="st0" points="259.6,88 266.8,88 266.8,89.1 260.8,89.1 260.8,93.8 265.7,93.8 265.7,94.9 260.8,94.9 260.8,99.6 
		267.1,99.6 267.1,100.8 259.6,100.8 	"/>
	<polygon class="st0" points="274.8,88 276.1,88 276.1,99.6 282,99.6 282,100.8 274.8,100.8 	"/>
	<path class="st0" d="M288,89.3c0,0-0.3,1.1-0.5,1.7l-1.7,4.6h4.4l-1.7-4.6C288.3,90.4,288,89.3,288,89.3L288,89.3L288,89.3z
		 M290.5,96.7h-5.1l-1.5,4.1h-1.3l4.7-12.8h1.3l4.7,12.8H292L290.5,96.7z"/>
	<path class="st0" d="M300.1,98.4c0,0,1.3,1.4,3.3,1.4c1.4,0,2.5-0.8,2.5-2.2c0-3.2-6.4-2.4-6.4-6.4c0-1.8,1.6-3.4,4-3.4
		c2.2,0,3.4,1.2,3.4,1.2l-0.6,1.1c0,0-1.1-1.1-2.8-1.1c-1.6,0-2.7,1.1-2.7,2.2c0,3,6.4,2.2,6.4,6.4c0,1.9-1.5,3.5-3.9,3.5
		c-2.6,0-4-1.6-4-1.6L300.1,98.4z"/>
	<polygon class="st0" points="310.1,88 317.3,88 317.3,89.1 311.3,89.1 311.3,93.8 316.2,93.8 316.2,94.9 311.3,94.9 311.3,99.6 
		317.6,99.6 317.6,100.8 310.1,100.8 	"/>
	<path class="st0" d="M324.7,94.3c1.5,0,2.5-1,2.5-2.6c0-1.1-0.4-1.8-1.2-2.2c-0.4-0.2-0.8-0.3-1.8-0.3h-2.6v5.1H324.7L324.7,94.3z
		 M320.5,88h3.8c1.3,0,1.9,0.1,2.4,0.3c1.2,0.5,1.9,1.7,1.9,3.3c0,1.7-1,3.1-2.4,3.4l0,0c0,0,0.1,0.2,0.3,0.5l2.8,5.1h-1.4l-2.9-5.4
		h-3.2v5.4h-1.3L320.5,88L320.5,88z"/>
	<polygon class="st0" points="331.9,88 339.1,88 339.1,89.1 333.1,89.1 333.1,93.8 338,93.8 338,94.9 333.1,94.9 333.1,99.6 
		339.4,99.6 339.4,100.8 331.9,100.8 	"/>
	<path class="st0" d="M342.2,88h1.2l6.5,9.2c0.4,0.6,1.1,1.7,1.1,1.7l0,0c0,0-0.1-1.1-0.1-1.7V88h1.3v12.8H351l-6.5-9.2
		c-0.4-0.6-1.1-1.7-1.1-1.7l0,0c0,0,0.1,1.1,0.1,1.7v9.2h-1.3V88z"/>
	<path class="st0" d="M359.6,89.3c0,0-0.3,1.1-0.5,1.7l-1.7,4.6h4.4l-1.7-4.6C359.9,90.4,359.7,89.3,359.6,89.3L359.6,89.3
		L359.6,89.3z M362.2,96.7h-5.1l-1.5,4.1h-1.3L359,88h1.3l4.7,12.8h-1.3L362.2,96.7z"/>
	<path class="st0" d="M125,108.4c1.5,0,2.3,0.8,2.3,0.8l-0.3,0.5c0,0-0.7-0.7-1.9-0.7c-1.5,0-2.6,1.2-2.6,2.7s1.1,2.8,2.6,2.8
		c1.3,0,2.1-0.9,2.1-0.9l0.4,0.4c0,0-0.9,1-2.4,1c-1.9,0-3.2-1.5-3.2-3.3C121.8,109.8,123.1,108.4,125,108.4z"/>
	<polygon class="st0" points="128.8,108.5 129.4,108.5 129.4,111.4 133.1,111.4 133.1,108.5 133.8,108.5 133.8,114.9 133.1,114.9 
		133.1,112 129.4,112 129.4,114.9 128.8,114.9 	"/>
	<rect x="135.6" y="108.5" class="st0" width="0.6" height="6.4"/>
	<polygon class="st0" points="138.1,108.5 138.7,108.5 138.7,114.3 141.7,114.3 141.7,114.9 138.1,114.9 	"/>
	<polygon class="st0" points="142.8,108.5 146.4,108.5 146.4,109.1 143.4,109.1 143.4,111.4 145.8,111.4 145.8,112 143.4,112 
		143.4,114.3 146.6,114.3 146.6,114.9 142.8,114.9 	"/>
	<rect x="121.8" y="76.7" class="st0" width="244.8" height="1.6"/>
	<g>
		<path class="st3" d="M120.9,32h1.5l4,10.9c0.3,0.7,0.6,1.9,0.6,1.9l0,0c0,0,0.3-1.1,0.6-1.9l4-10.9h1.5l-5.3,14.4h-1.5L120.9,32z"
			/>
		<path class="st3" d="M134.4,32h1.5v1.7h-1.5V32z M134.5,36.1h1.4v10.3h-1.4V36.1z"/>
		<path class="st3" d="M143.4,35.8c2.5,0,3.8,1.5,3.8,1.5l-0.7,1c0,0-1.1-1.2-3-1.2c-2.2,0-4,1.7-4,4.1c0,2.4,1.8,4.1,4,4.1
			c2.1,0,3.3-1.5,3.3-1.5l0.6,1.1c0,0-1.4,1.6-4,1.6c-3,0-5.4-2.2-5.4-5.4C138,38.1,140.3,35.8,143.4,35.8z"/>
		<path class="st3" d="M153.7,35.8c2.8,0,4.3,2.2,4.3,4.7c0,0.2,0,0.7,0,0.7h-7.9c0.1,2.6,1.9,4.1,4,4.1c1.9,0,3.1-1.2,3.1-1.2
			l0.6,1.1c0,0-1.5,1.4-3.8,1.4c-3.1,0-5.4-2.2-5.4-5.4C148.7,37.8,151,35.8,153.7,35.8z M156.6,40.1c-0.1-2.1-1.4-3.1-2.9-3.1
			c-1.7,0-3.2,1.1-3.5,3.1H156.6z"/>
		<path class="st3" d="M160.2,36.1h1.4v1.8c0,0.4,0,0.8,0,0.8l0,0c0.5-1.6,1.6-2.7,3.2-2.7c0.3,0,0.6,0.1,0.6,0.1v1.4
			c0,0-0.2,0-0.5,0c-1.5,0-2.5,1.1-3,2.7c-0.2,0.7-0.3,1.3-0.3,2v4.3h-1.4V36.1z"/>
		<path class="st3" d="M166.9,36.1h1.4v1.8c0,0.4,0,0.8,0,0.8l0,0c0.5-1.6,1.6-2.7,3.2-2.7c0.3,0,0.6,0.1,0.6,0.1v1.4
			c0,0-0.2,0-0.5,0c-1.5,0-2.5,1.1-3,2.7c-0.2,0.7-0.3,1.3-0.3,2v4.3h-1.4V36.1z"/>
		<path class="st3" d="M177.9,35.8c2.8,0,4.3,2.2,4.3,4.7c0,0.2,0,0.7,0,0.7h-7.9c0.1,2.6,1.9,4.1,4,4.1c1.9,0,3.1-1.2,3.1-1.2
			l0.6,1.1c0,0-1.5,1.4-3.8,1.4c-3.1,0-5.4-2.2-5.4-5.4C172.9,37.8,175.1,35.8,177.9,35.8z M180.8,40.1c-0.1-2.1-1.4-3.1-2.9-3.1
			c-1.7,0-3.2,1.1-3.5,3.1H180.8z"/>
		<path class="st3" d="M189,35.8c2.5,0,3.8,1.5,3.8,1.5l-0.7,1c0,0-1.1-1.2-3-1.2c-2.2,0-4,1.7-4,4.1c0,2.4,1.8,4.1,4,4.1
			c2.1,0,3.3-1.5,3.3-1.5L193,45c0,0-1.4,1.6-4,1.6c-3,0-5.4-2.2-5.4-5.4C183.6,38.1,186,35.8,189,35.8z"/>
		<path class="st3" d="M195.4,37.4h-1.3v-1.2h1.4v-3h1.4v3h2.6v1.2h-2.6v5.1c0,2.4,1.5,2.7,2.3,2.7c0.3,0,0.5,0,0.5,0v1.2
			c0,0-0.2,0-0.6,0c-1.2,0-3.6-0.4-3.6-3.8L195.4,37.4L195.4,37.4z"/>
		<path class="st3" d="M206.1,35.8c3,0,5.4,2.3,5.4,5.3c0,3.1-2.4,5.4-5.4,5.4s-5.4-2.3-5.4-5.4C200.6,38.1,203.1,35.8,206.1,35.8z
			 M206.1,45.3c2.2,0,4-1.8,4-4.2c0-2.3-1.8-4.1-4-4.1s-4,1.7-4,4.1C202.1,43.5,203.9,45.3,206.1,45.3z"/>
		<path class="st3" d="M213.6,36.1h1.4v1.8c0,0.4,0,0.8,0,0.8l0,0c0.5-1.6,1.6-2.7,3.2-2.7c0.3,0,0.6,0.1,0.6,0.1v1.4
			c0,0-0.2,0-0.5,0c-1.5,0-2.5,1.1-3,2.7c-0.2,0.7-0.3,1.3-0.3,2v4.3h-1.4V36.1z"/>
		<path class="st3" d="M220.3,36.1h1.4v10.3h-1.4V36.1z M221.8,32h1.6l-1.8,2.4h-1.3L221.8,32z"/>
		<path class="st3" d="M230,40h0.6v-0.3c0-2-1.1-2.7-2.6-2.7c-1.7,0-2.9,1-2.9,1l-0.7-1.1c0,0,1.3-1.2,3.7-1.2
			c2.5,0,3.8,1.4,3.8,3.9v6.6h-1.3v-1.1c0-0.5,0-0.9,0-0.9l0,0c0,0-0.9,2.2-3.4,2.2c-1.7,0-3.5-1-3.5-3C223.7,40.1,228.2,40,230,40z
			 M227.4,45.4c2,0,3.1-2,3.1-3.8v-0.4H230c-1.6,0-4.8,0.1-4.8,2.3C225.2,44.4,225.9,45.4,227.4,45.4z"/>
		<path class="st3" d="M244.1,35.8c2.5,0,3.4,1.9,3.4,1.9l0,0c0,0,0-0.3,0-0.8v-5h1.4v14.4h-1.3v-1.1c0-0.4,0-0.7,0-0.7l0,0
			c0,0-0.8,2.1-3.5,2.1c-2.8,0-4.5-2.2-4.5-5.4C239.5,38,241.4,35.8,244.1,35.8z M244.2,45.3c1.7,0,3.3-1.2,3.3-4.1
			c0-2.1-1.1-4.1-3.3-4.1c-1.8,0-3.3,1.5-3.3,4.1C240.9,43.7,242.3,45.3,244.2,45.3z"/>
		<path class="st3" d="M256.1,35.8c2.8,0,4.3,2.2,4.3,4.7c0,0.2,0,0.7,0,0.7h-7.9c0.1,2.6,1.9,4.1,4,4.1c1.9,0,3.1-1.2,3.1-1.2
			l0.6,1.1c0,0-1.5,1.4-3.8,1.4c-3.1,0-5.4-2.2-5.4-5.4C251,37.8,253.3,35.8,256.1,35.8z M258.9,40.1c-0.1-2.1-1.4-3.1-2.9-3.1
			c-1.7,0-3.2,1.1-3.5,3.1H258.9z"/>
		<path class="st3" d="M122.5,54.8h2.6v14.5h-2.6V54.8z"/>
		<path class="st3" d="M127.9,58.9h2.5v1.2c0,0.4,0,0.7,0,0.7l0,0c0.4-0.9,1.6-2.2,3.7-2.2c2.3,0,3.6,1.2,3.6,4v6.7h-2.6v-6.2
			c0-1.3-0.3-2.1-1.7-2.1s-2.4,0.9-2.8,2.1c-0.1,0.4-0.2,0.9-0.2,1.4v4.8h-2.6V58.9H127.9z"/>
		<path class="st3" d="M138.6,58.9h2.7l2.2,6.5c0.2,0.6,0.3,1.6,0.4,1.6l0,0c0,0,0.2-1,0.4-1.6l2.2-6.5h2.7l-3.7,10.4h-3.1
			L138.6,58.9z"/>
		<path class="st3" d="M154.7,58.7c3,0,4.6,2.2,4.6,4.9c0,0.3-0.1,1-0.1,1H152c0.2,1.8,1.6,2.8,3.1,2.8c1.7,0,3-1.1,3-1.1l1,1.9
			c0,0-1.6,1.5-4.2,1.5c-3.5,0-5.6-2.5-5.6-5.5C149.4,60.9,151.6,58.7,154.7,58.7z M156.7,62.9c0-1.4-0.9-2.2-2.1-2.2
			c-1.3,0-2.2,0.8-2.5,2.2H156.7z"/>
		<path class="st3" d="M161.3,66.2c0,0,1.1,1.1,2.8,1.1c0.7,0,1.4-0.3,1.4-0.9c0-1.6-5.1-1.3-5.1-4.7c0-1.9,1.7-3.1,4-3.1
			s3.5,1.2,3.5,1.2l-1,1.9c0,0-1-0.9-2.6-0.9c-0.7,0-1.3,0.3-1.3,0.9c0,1.5,5.1,1.3,5.1,4.6c0,1.7-1.5,3.1-4,3.1c-2.6,0-4-1.5-4-1.5
			L161.3,66.2z"/>
		<path class="st3" d="M170.2,61.2h-1.3v-2.1h1.4v-3h2.5v3h2.4v2.1h-2.4v4c0,1.7,1.3,2,2.1,2c0.3,0,0.5,0,0.5,0v2.3
			c0,0-0.3,0.1-0.8,0.1c-1.5,0-4.3-0.4-4.3-3.9L170.2,61.2L170.2,61.2z"/>
		<path class="st3" d="M177,54.8h2.6v2.3H177V54.8z M177,58.9h2.6v10.4H177V58.9z"/>
		<path class="st3" d="M185.9,71.4c1.6,0,2.9-0.7,2.9-2.5v-0.6c0-0.2,0-0.6,0-0.6l0,0c-0.6,0.9-1.5,1.4-2.9,1.4
			c-3,0-4.7-2.4-4.7-5.3s1.6-5.2,4.6-5.2c2.3,0,3.1,1.3,3.1,1.3h0.1c0,0,0-0.1,0-0.3v-0.8h2.4v9.8c0,3.6-2.8,4.9-5.5,4.9
			c-1.3,0-2.7-0.4-3.7-0.9l0.8-2C183.1,70.8,184.4,71.4,185.9,71.4z M189,63.9c0-2.4-1.2-3-2.6-3c-1.6,0-2.5,1.1-2.5,2.9
			s0.9,3.2,2.6,3.2C187.8,67,189,66.2,189,63.9z"/>
		<path class="st3" d="M199.2,62.8h0.3v-0.1c0-1.4-0.9-1.8-2-1.8c-1.5,0-2.9,1-2.9,1l-1-1.9c0,0,1.6-1.3,4.1-1.3
			c2.7,0,4.3,1.5,4.3,4.1v6.5h-2.4v-0.9c0-0.4,0-0.7,0-0.7l0,0c0,0-0.8,1.8-3.2,1.8c-1.9,0-3.5-1.2-3.5-3.2
			C193,63,197.5,62.8,199.2,62.8z M197.2,67.6c1.4,0,2.3-1.5,2.3-2.7v-0.2h-0.4c-1.3,0-3.5,0.2-3.5,1.6
			C195.6,66.9,196.1,67.6,197.2,67.6z"/>
		<path class="st3" d="M209.2,58.7c2.7,0,4,1.6,4,1.6l-1.1,1.8c0,0-1.1-1.1-2.7-1.1c-1.9,0-3.2,1.5-3.2,3.2c0,1.8,1.3,3.3,3.2,3.3
			c1.8,0,3.1-1.3,3.1-1.3l1,1.8c0,0-1.5,1.7-4.3,1.7c-3.5,0-5.7-2.4-5.7-5.5C203.6,61.2,205.8,58.7,209.2,58.7z"/>
		<path class="st3" d="M215,54.8h2.6v2.3H215V54.8z M215,58.9h2.6v10.4H215V58.9z"/>
		<path class="st3" d="M224.9,58.7c3.2,0,5.7,2.3,5.7,5.5s-2.6,5.5-5.7,5.5c-3.2,0-5.7-2.2-5.7-5.5C219.2,61,221.8,58.7,224.9,58.7z
			 M225,67.4c1.7,0,3.1-1.3,3.1-3.2c0-1.9-1.4-3.2-3.1-3.2c-1.7,0-3.1,1.3-3.1,3.2C221.9,66.1,223.3,67.4,225,67.4z M225.4,54.9h2.7
			l-2.1,2.8h-2.1L225.4,54.9z"/>
		<path class="st3" d="M232.3,58.9h2.5v1.2c0,0.4,0,0.7,0,0.7l0,0c0.4-0.9,1.6-2.2,3.7-2.2c2.3,0,3.6,1.2,3.6,4v6.7h-2.6v-6.2
			c0-1.3-0.3-2.1-1.7-2.1s-2.4,0.9-2.8,2.1c-0.1,0.4-0.2,0.9-0.2,1.4v4.8h-2.6V58.9H232.3z"/>
		<path class="st3" d="M248.8,71c0,0,0.6,0.4,1.2,0.4c0.7,0,1.4-0.4,1.8-1.3l0.4-0.9l-4.4-10.3h2.9l2.2,6c0.2,0.6,0.4,1.4,0.4,1.4
			l0,0c0,0,0.2-0.8,0.3-1.4l2-6h2.8l-4.7,12c-0.7,1.9-2.2,2.7-3.8,2.7c-1.2,0-2.2-0.7-2.2-0.7L248.8,71z"/>
		<path class="st3" d="M264.9,54.8h5.6c2.7,0,4.6,1.9,4.6,4.7s-1.9,4.8-4.6,4.8h-3v5h-2.6V54.8z M270,62.1c1.5,0,2.4-1,2.4-2.5
			s-0.9-2.5-2.4-2.5h-2.5V62L270,62.1L270,62.1z"/>
		<path class="st3" d="M281.5,58.7c3.2,0,5.7,2.3,5.7,5.5s-2.6,5.5-5.7,5.5c-3.2,0-5.7-2.2-5.7-5.5C275.8,61,278.3,58.7,281.5,58.7z
			 M281.5,67.4c1.7,0,3.1-1.3,3.1-3.2c0-1.9-1.4-3.2-3.1-3.2s-3.1,1.3-3.1,3.2C278.4,66.1,279.8,67.4,281.5,67.4z"/>
		<path class="st3" d="M289.2,66.2c0,0,1.1,1.1,2.8,1.1c0.7,0,1.4-0.3,1.4-0.9c0-1.6-5.1-1.3-5.1-4.7c0-1.9,1.7-3.1,4-3.1
			s3.5,1.2,3.5,1.2l-1,1.9c0,0-1-0.9-2.6-0.9c-0.7,0-1.3,0.3-1.3,0.9c0,1.5,5.1,1.3,5.1,4.6c0,1.7-1.5,3.1-4,3.1c-2.6,0-4-1.5-4-1.5
			L289.2,66.2z"/>
		<path class="st3" d="M298.1,61.2h-1.3v-2.1h1.4v-3h2.5v3h2.4v2.1h-2.4v4c0,1.7,1.3,2,2.1,2c0.3,0,0.5,0,0.5,0v2.3
			c0,0-0.3,0.1-0.8,0.1c-1.5,0-4.3-0.4-4.3-3.9v-4.5H298.1z"/>
		<path class="st3" d="M308.8,71.4c1.6,0,2.9-0.7,2.9-2.5v-0.6c0-0.2,0-0.6,0-0.6l0,0c-0.6,0.9-1.5,1.4-2.9,1.4
			c-3,0-4.7-2.4-4.7-5.3s1.6-5.2,4.6-5.2c2.3,0,3.1,1.3,3.1,1.3h0.1c0,0,0-0.1,0-0.3v-0.8h2.4v9.8c0,3.6-2.8,4.9-5.5,4.9
			c-1.3,0-2.7-0.4-3.7-0.9l0.8-2C305.9,70.8,307.2,71.4,308.8,71.4z M311.8,63.9c0-2.4-1.2-3-2.6-3c-1.6,0-2.5,1.1-2.5,2.9
			s0.9,3.2,2.6,3.2C310.7,67,311.8,66.2,311.8,63.9z"/>
		<path class="st3" d="M316.8,58.9h2.5v1.8c0,0.4,0,0.7,0,0.7l0,0c0.5-1.5,1.7-2.7,3.3-2.7c0.2,0,0.5,0,0.5,0v2.6c0,0-0.3,0-0.6,0
			c-1.1,0-2.3,0.6-2.8,2.2c-0.2,0.5-0.2,1.1-0.2,1.7v4.1h-2.6L316.8,58.9L316.8,58.9z"/>
		<path class="st3" d="M329.6,62.8h0.3v-0.1c0-1.4-0.9-1.8-2-1.8c-1.5,0-2.9,1-2.9,1l-1-1.9c0,0,1.6-1.3,4.1-1.3
			c2.7,0,4.3,1.5,4.3,4.1v6.5H330v-0.9c0-0.4,0-0.7,0-0.7l0,0c0,0-0.8,1.8-3.2,1.8c-1.9,0-3.5-1.2-3.5-3.2
			C323.4,63,327.9,62.8,329.6,62.8z M327.6,67.6c1.4,0,2.3-1.5,2.3-2.7v-0.2h-0.4c-1.3,0-3.5,0.2-3.5,1.6
			C326.1,66.9,326.6,67.6,327.6,67.6z"/>
		<path class="st3" d="M338.8,58.7c2.3,0,3,1.3,3,1.3l0,0c0,0,0-0.3,0-0.6v-4.6h2.6v14.5h-2.5v-0.9c0-0.4,0-0.7,0-0.7l0,0
			c0,0-0.9,1.8-3.3,1.8c-2.8,0-4.6-2.2-4.6-5.5C334.1,60.8,336,58.7,338.8,58.7z M339.3,67.4c1.3,0,2.6-1,2.6-3.3
			c0-1.6-0.9-3.2-2.6-3.2c-1.4,0-2.6,1.2-2.6,3.2C336.7,66.1,337.7,67.4,339.3,67.4z"/>
		<path class="st3" d="M351.7,58.7c3.2,0,5.7,2.3,5.7,5.5s-2.6,5.5-5.7,5.5c-3.2,0-5.7-2.2-5.7-5.5C346,61,348.6,58.7,351.7,58.7z
			 M351.8,67.4c1.7,0,3.1-1.3,3.1-3.2c0-1.9-1.4-3.2-3.1-3.2s-3.1,1.3-3.1,3.2C348.6,66.1,350.1,67.4,351.8,67.4z"/>
	</g>
</g>
</svg>
